<?xml version="1.0" encoding="utf-8"?>
<!-- Generator: Adobe Illustrator 16.0.4, SVG Export Plug-In . SVG Version: 6.00 Build 0)  -->
<!DOCTYPE svg PUBLIC "-//W3C//DTD SVG 1.1//EN" "http://www.w3.org/Graphics/SVG/1.1/DTD/svg11.dtd">
<svg version="1.1" id="Layer_1" xmlns="http://www.w3.org/2000/svg" xmlns:xlink="http://www.w3.org/1999/xlink" x="0px" y="0px"
	 width="110.338px" height="110.336px" viewBox="0 0 110.338 110.336" enable-background="new 0 0 110.338 110.336"
	 xml:space="preserve">
<g>
	<path fill="none" stroke="#000000" stroke-width="15" stroke-miterlimit="10" d="M64.36,39.494
		c5.371,3.156,8.978,8.994,8.978,15.676c0,10.034-8.135,18.168-18.17,18.168c-4.877,0-9.305-1.922-12.568-5.049"/>
	<g>
		<g>
			<path fill="none" stroke="#000000" stroke-width="15" stroke-miterlimit="10" d="M42.6,68.29
				c-0.361-0.347-0.707-0.707-1.039-1.082"/>
			<path fill="none" stroke="#000000" stroke-width="15" stroke-miterlimit="10" stroke-dasharray="2.9305,2.9305" d="M39.803,64.87
				C38.027,62.062,37,58.736,37,55.17C37,45.135,45.135,37,55.168,37c2.302,0,4.502,0.427,6.526,1.208"/>
			<path fill="none" stroke="#000000" stroke-width="15" stroke-miterlimit="10" d="M63.039,38.789
				c0.451,0.217,0.894,0.453,1.321,0.706"/>
		</g>
	</g>
	<path fill="none" stroke="#009444" stroke-width="15" stroke-miterlimit="10" d="M38.684,83.379
		C29.002,77.709,22.5,67.2,22.5,55.17c0-18.043,14.627-32.67,32.668-32.67c10.742,0,20.272,5.184,26.229,13.188"/>
	<path fill="none" stroke="#009444" stroke-width="15" stroke-miterlimit="10" stroke-dasharray="3" d="M81.396,35.688
		c4.047,5.439,6.441,12.18,6.441,19.482c0,18.043-14.627,32.667-32.67,32.667c-6.012,0-11.645-1.623-16.484-4.457"/>
	<path fill="none" stroke="#F26522" stroke-width="15" stroke-miterlimit="10" stroke-dasharray="3" d="M18.328,85.42
		C11.562,77.19,7.5,66.655,7.5,55.17C7.5,28.842,28.842,7.5,55.168,7.5c8.875,0,17.185,2.426,24.299,6.65"/>
	<path fill="none" stroke="#F26522" stroke-width="15" stroke-miterlimit="10" d="M79.467,14.15
		c13.992,8.305,23.371,23.566,23.371,41.02c0,26.325-21.342,47.667-47.67,47.667c-14.84,0-28.098-6.78-36.84-17.416"/>
</g>
</svg>
